<?xml version="1.0" encoding="UTF-8" standalone="no"?>
<svg
   xmlns:dc="http://purl.org/dc/elements/1.1/"
   xmlns:cc="http://creativecommons.org/ns#"
   xmlns:rdf="http://www.w3.org/1999/02/22-rdf-syntax-ns#"
   xmlns:svg="http://www.w3.org/2000/svg"
   xmlns="http://www.w3.org/2000/svg"
   xmlns:sodipodi="http://sodipodi.sourceforge.net/DTD/sodipodi-0.dtd"
   xmlns:inkscape="http://www.inkscape.org/namespaces/inkscape"
   width="500"
   height="500"
   version="1.1"
   viewBox="0 0 500.00001 500.00001"
   id="svg12"
   sodipodi:docname="pencil.svg"
   inkscape:version="0.92.2 5c3e80d, 2017-08-06">
  <metadata
     id="metadata18">
    <rdf:RDF>
      <cc:Work
         rdf:about="">
        <dc:format>image/svg+xml</dc:format>
        <dc:type
           rdf:resource="http://purl.org/dc/dcmitype/StillImage" />
      </cc:Work>
    </rdf:RDF>
  </metadata>
  <defs
     id="defs16" />
  <sodipodi:namedview
     pagecolor="#ffffff"
     bordercolor="#666666"
     borderopacity="1"
     objecttolerance="10"
     gridtolerance="10"
     guidetolerance="10"
     inkscape:pageopacity="0"
     inkscape:pageshadow="2"
     inkscape:window-width="1440"
     inkscape:window-height="790"
     id="namedview14"
     showgrid="false"
     inkscape:zoom="0.6675088"
     inkscape:cx="257.44644"
     inkscape:cy="253.10268"
     inkscape:window-x="0"
     inkscape:window-y="1"
     inkscape:window-maximized="1"
     inkscape:current-layer="svg12" />
  <g
     transform="matrix(1.4226266,0,0,1.3858776,-99.227562,-856.78429)"
     id="g10"
     style="fill:#555555">
    <path
       d="M 269.73,630.56 C 174.844,619.665 89.09,687.754 78.2,782.64 67.305,877.526 135.394,963.28 230.28,974.17 325.166,985.06 410.92,916.976 421.81,822.09 432.705,727.204 364.616,641.45 269.73,630.56 Z m -1.7746,15.455 c 86.351,9.915 148.31,87.953 138.4,174.3 -9.915,86.351 -87.953,148.31 -174.3,138.4 -86.351,-9.915 -148.31,-87.953 -138.4,-174.3 9.915,-86.351 87.953,-148.31 174.3,-138.4 z"
       id="path2"
       inkscape:connector-curvature="0" />
    <g
       transform="matrix(1.5749,0,0,1.5749,-204.86,-430.34)"
       id="g8">
      <path
         transform="translate(0,552.36)"
         d="m 303.57,167.92 c -1.0038,0.0702 -1.953,0.6237 -2.4961,1.5644 l -2.0039,3.4688 33.439,19.307 2.0039,-3.4688 c 0.86903,-1.5052 0.35676,-3.4181 -1.1484,-4.2871 l -28.006,-16.168 c -0.56445,-0.32588 -1.1868,-0.45812 -1.7891,-0.41601 z m -6.5859,8.6465 -42.156,73.018 33.439,19.305 42.156,-73.016 z m -44.242,76.631 -1.9863,3.4394 c -0.86903,1.5052 -0.35677,3.4161 1.1484,4.2852 l 28.006,16.168 c 1.5052,0.86903 3.4161,0.35676 4.2852,-1.1484 l 1.9863,-3.4394 -33.439,-19.305 z"
         id="path4"
         inkscape:connector-curvature="0" />
      <path
         d="m 249,850.66 c -1.0612,-0.61275 -0.68138,-3.6463 -0.68138,-3.6463 l 0.59844,-5.8633 0.59864,-5.8636 0.59845,-5.863 0.59855,-5.8633 0.59844,-5.8633 0.59864,-5.8633 0.59845,-5.8633 4.18,2.4133 4.18,2.4133 4.18,2.4133 4.18,2.4133 4.18,2.4133 4.18,2.4133 4.18,2.4133 4.18,2.4133 -4.7784,3.45 -4.7786,3.45 -4.7784,3.45 -4.7785,3.45 -4.7784,3.45 -4.7786,3.45 -4.7784,3.45 c 0,0 -2.4374,1.8458 -3.4986,1.233 z"
         id="path6"
         inkscape:connector-curvature="0" />
    </g>
  </g>
</svg>
